<svg height="512pt" viewBox="-1 0 511 512" width="512pt" xmlns="http://www.w3.org/2000/svg"><path d="m339.746094 147c3.199218-3 3.199218-8 .199218-11.199219-1.199218-1.199219-2.800781-2-4.601562-2.402343l-46.398438-6.796876c-2.601562-.402343-4.800781-2-6-4.402343l-20.800781-42c-2-4-6.597656-5.597657-10.597656-3.597657-1.601563.796876-2.800781 2-3.601563 3.597657l-20.800781 42c-1.199219 2.402343-3.398437 4-6 4.402343l-46.398437 7c-4.402344.597657-7.402344 4.597657-6.601563 9 .199219 1.796876 1 3.398438 2.402344 4.597657l33.597656 32.800781c1.800781 1.800781 2.800781 4.398438 2.199219 7l-8 46.199219c-.796875 4.402343 2.203125 8.402343 6.402344 9.199219 1.800781.203124 3.398437 0 5-.796876l41.597656-21.800781c2.402344-1.199219 5-1.199219 7.402344 0l41.597656 21.800781c3.800781 2 8.601562.597657 10.601562-3.402343.800782-1.597657 1-3.398438.800782-5l-8-46.199219c-.402344-2.601562.398437-5.199219 2.199218-7zm0 0" fill="#ffae2c"/><path d="m315.34375 170.800781-9.199219 9c-1.800781 1.800781-2.800781 4.398438-2.199219 7l8 46.199219c.800782 4.398438-2.199218 8.398438-6.398437 9.199219-1.800781.199219-3.402344 0-5-.800781l-41.800781-21.796876c-1.402344-.601562-2.800782-1-4.199219-.800781v58l166.199219-62.800781zm0 0" fill="#a35d2e"/><path d="m251.34375 219.601562-41.597656 21.796876c-3.800782 2-8.601563.601562-10.601563-3.398438-.800781-1.601562-1-3.398438-.800781-5l8-46.199219c.402344-2.601562-.398438-5.199219-2.199219-7l-9.597656-9.402343-105.800781 43.402343 165.800781 62.800781v-58c-1.203125.199219-2.203125.398438-3.203125 1zm0 0" fill="#a35d2e"/><path d="m503.945312 278-166.398437 62.800781-83-64.199219 166.199219-62.800781zm0 0" fill="#c1814c"/><path d="m337.546875 340.800781-83-64.199219v230.398438l166.199219-62.800781v-134.800781zm0 0" fill="#b26e3b"/><path d="m5.546875 278 166.398437 62.800781 83-64.199219-166.199218-62.800781zm0 0" fill="#c1814c"/><path d="m171.945312 340.800781-83.199218-31.402343v134.800781l166.199218 62.800781v-230.398438zm0 0" fill="#b26e3b"/><path d="m327.34375 53c-8.796875-1.601562-15.796875-8.601562-17.398438-17.398438 0-.203124-.199218-.402343-.398437-.203124-.203125 0-.203125.203124-.203125.203124-1.597656 8.796876-8.597656 15.796876-17.398438 17.398438-.199218 0-.398437.199219-.199218.398438 0 .203124.199218.203124.199218.203124 8.800782 1.597657 15.800782 8.597657 17.398438 17.398438 0 .199219.203125.398438.402344.199219.199218 0 .199218-.199219.199218-.199219 1.601563-8.800781 8.601563-15.800781 17.398438-17.398438.203125 0 .402344-.203124.203125-.402343 0 0-.203125-.199219-.203125-.199219zm0 0" fill="#f75c64"/><path d="m166.144531 93.199219h-17.199219c-2.800781 0-5-2.199219-5-5s2.199219-5 5-5h17.199219c2.800781 0 5 2.199219 5 5s-2.199219 5-5 5zm0 0" fill="#6dcc6d"/><path d="m157.546875 101.800781c-2.800781 0-5-2.199219-5-5v-17.199219c0-2.800781 2.199219-5 5-5 2.796875 0 5 2.199219 5 5v17.199219c0 2.800781-2.203125 5-5 5zm0 0" fill="#6dcc6d"/><path d="m415.144531 148.800781h-17.199219c-2.800781 0-5-2.199219-5-5s2.199219-5 5-5h17.199219c2.800781 0 5 2.199219 5 5s-2.398437 5-5 5zm0 0" fill="#60bae2"/><path d="m406.546875 157.601562c-2.800781 0-5-2.203124-5-5v-17.203124c0-2.796876 2.199219-5 5-5 2.796875 0 5 2.203124 5 5v17.203124c-.203125 2.597657-2.402344 5-5 5zm0 0" fill="#60bae2"/><path d="m130.34375 152.398438c1.402344 0 2.601562.601562 3.601562 1.402343.199219.199219.398438.398438.601563.800781.199219.199219.398437.597657.398437.796876.199219.203124.199219.601562.199219 1 0 .402343.199219.601562.199219 1 0 .402343 0 .601562-.199219 1 0 .402343-.199219.601562-.199219 1-.199218.402343-.199218.601562-.398437.800781-.203125.199219-.402344.601562-.601563.800781-1.398437 1.398438-3.601562 1.800781-5.398437 1-.203125-.199219-.601563-.199219-.800781-.398438-.199219-.203124-.601563-.402343-.800782-.601562-.199218-.199219-.398437-.398438-.601562-.800781-.199219-.199219-.398438-.597657-.398438-.800781-.199218-.199219-.199218-.597657-.199218-1 0-.398438 0-.597657 0-1 0-.398438 0-.597657 0-1 0-.398438.199218-.597657.199218-1 .199219-.398438.199219-.597657.398438-.796876.203125-.203124.402344-.601562.601562-.800781.199219-.199219.398438-.402343.800782-.601562.199218-.199219.597656-.398438.800781-.398438.398437-.199219.597656-.199219 1-.199219.199219-.203124.398437-.203124.796875-.203124zm0 0" fill="#ffae2c"/><path d="m443.546875 103.199219c1.398437 0 2.597656.601562 3.597656 1.402343.199219.199219.402344.398438.601563.796876.199218.203124.398437.601562.398437.800781.199219.199219.199219.601562.199219 1 0 .402343.203125.601562.203125 1 0 .402343 0 .601562-.203125 1 0 .402343-.199219.601562-.199219 1-.199219.402343-.199219.601562-.398437.800781-.199219.199219-.402344.601562-.601563.800781-1.398437 1.398438-3.597656 1.800781-5.398437 1-.199219-.199219-.601563-.199219-.800782-.402343-.199218-.199219-.601562-.398438-.800781-.597657s-.398437-.402343-.597656-.800781c-.203125-.199219-.402344-.601562-.402344-.800781-.199219-.199219-.199219-.597657-.199219-1 0-.398438 0-.597657 0-1 0-.398438 0-.597657 0-1 0-.398438.199219-.597657.199219-1 .199219-.398438.199219-.597657.402344-.800781.199219-.199219.398437-.597657.597656-.796876.199219-.203124.402344-.402343.800781-.601562.199219-.199219.601563-.398438.800782-.398438.398437-.203124.597656-.203124 1-.203124.199218 0 .597656-.199219.800781-.199219zm0 0" fill="#ffae2c"/><path d="m55.34375 324.601562c1.402344 0 2.601562.597657 3.601562 1.398438.199219.199219.398438.398438.601563.800781.199219.199219.398437.597657.398437.800781.199219.199219.199219.597657.199219 1 0 .398438.199219.597657 0 1v1c0 .398438-.199219.597657-.199219 1-.199218.398438-.199218.597657-.398437.796876-.203125.203124-.402344.601562-.601563.800781-1.398437 1.402343-3.601562 1.800781-5.398437 1-.203125-.199219-.601563-.199219-.800781-.398438-.199219-.199219-.601563-.402343-.800782-.601562-.199218-.199219-.398437-.398438-.601562-.800781-.199219-.199219-.398438-.597657-.398438-.796876-.199218-.203124-.199218-.601562-.199218-1 0-.402343 0-.601562 0-1 0-.402343 0-.601562 0-1 0-.402343.199218-.601562.199218-1 .199219-.402343.199219-.601562.398438-.800781.203125-.199219.402344-.601562.601562-.800781.199219-.199219.398438-.398438.800782-.601562.199218-.199219.597656-.398438.800781-.398438.398437-.199219.597656-.199219 1-.199219.199219-.199219.597656-.199219.796875-.199219zm0 0" fill="#ffae2c"/><path d="m278.945312 0c1.398438 0 2.601563.601562 3.601563 1.398438.199219.203124.398437.402343.597656.800781.199219.199219.402344.601562.402344.800781.199219.398438.199219.601562.199219 1s.199218.601562.199218 1 0 .601562-.199218 1c0 .398438-.199219.601562-.199219 1-.203125.398438-.203125.601562-.402344.800781s-.398437.597657-.597656.800781c-1.402344 1.398438-3.601563 1.796876-5.402344 1-.199219-.203124-.597656-.203124-.800781-.402343-.199219-.199219-.597656-.398438-.796875-.597657-.203125-.203124-.402344-.402343-.601563-.800781-.199218-.199219-.398437-.601562-.398437-.800781-.203125-.199219-.203125-.601562-.203125-1s0-.601562 0-1 0-.601562 0-1 .203125-.601562.203125-1c.199219-.398438.199219-.601562.398437-.800781.199219-.199219.398438-.597657.601563-.800781.199219-.199219.398437-.398438.796875-.597657.203125-.199219.601562-.402343.800781-.402343.402344-.199219.601563-.199219 1-.199219.199219-.199219.402344-.199219.800781-.199219zm0 0" fill="#fcd770"/><g fill="#231f20"><path d="m254.546875 281.601562c-2.800781 0-5-2.203124-5-5v-58c0-2.601562 2-4.800781 4.597656-5 2.402344-.203124 4.800781.398438 7 1.398438l41.601563 21.800781c1.398437.800781 3.199218.199219 4-1.199219.199218-.601562.398437-1.203124.199218-1.800781l-8-46.199219c-.800781-4.203124.601563-8.402343 3.800782-11.402343l9.199218-9c1.398438-1.398438 3.601563-1.800781 5.398438-1l105.402344 43c2.597656 1 3.800781 4 2.800781 6.601562-.601563 1.199219-1.601563 2.199219-2.800781 2.800781l-166.402344 62.796876c-.597656.203124-1.199219.203124-1.796875.203124zm5-56v43.796876l147.597656-55.796876-90.597656-37-7 6.796876c-.601563.601562-1 1.601562-.800781 2.601562l8 46.199219c1.199218 7-3.601563 13.800781-10.601563 15-2.800781.402343-5.597656 0-8.199219-1.199219zm0 0"/><path d="m303.945312 247.398438c-2 0-4.199218-.597657-6-1.398438l-41.601562-22c-.796875-.398438-1.796875-.398438-2.796875 0l-41.601563 21.800781c-6.398437 3.398438-14.199218.800781-17.398437-5.402343-1.402344-2.597657-1.800781-5.398438-1.203125-8.199219l8-46.199219c.203125-1-.199219-2-.796875-2.601562l-33.601563-32.796876c-5.199218-5-5.199218-13.203124-.199218-18.203124 2-2 4.597656-3.398438 7.398437-3.796876l46.402344-6.800781c1-.199219 1.796875-.800781 2.199219-1.601562l20.800781-42c3.199219-6.398438 11-9 17.199219-5.800781 2.597656 1.203124 4.597656 3.402343 5.800781 5.800781l20.796875 42c.402344.800781 1.203125 1.402343 2.203125 1.601562l46.398437 6.800781c7 1 12 7.597657 11 14.597657-.398437 2.800781-1.800781 5.402343-3.800781 7.402343l-33.597656 32.796876c-.601563.601562-1 1.601562-.800781 2.601562l8 46.199219c1.199218 7-3.601563 13.800781-10.601563 15-.800781 0-1.398437.199219-2.199219.199219zm-48.800781-33.796876c2 0 4.199219.597657 6 1.398438l41.601563 21.800781c1.398437.800781 3.199218.199219 4-1.199219.199218-.601562.398437-1.203124.199218-1.800781l-8-46.199219c-.800781-4.203124.601563-8.402343 3.800782-11.402343l33.597656-32.800781c1.203125-1.199219 1.203125-3 0-4.199219-.398438-.398438-1-.800781-1.597656-.800781l-46.402344-6.796876c-4.199219-.601562-7.796875-3.203124-9.796875-7l-20.800781-42c-.800782-1.402343-2.402344-2-4-1.402343-.601563.199219-1 .800781-1.402344 1.402343l-20.796875 42c-1.800781 3.796876-5.601563 6.398438-9.800781 7l-46.402344 6.796876c-1.597656.203124-2.597656 1.800781-2.398438 3.402343 0 .597657.398438 1.199219.800782 1.597657l33.597656 32.800781c3 3 4.402344 7.199219 3.800781 11.402343l-8 46.199219c-.199219 1.597657.800781 3 2.402344 3.398438.597656.199219 1.199219 0 1.796875-.199219l41.601562-21.800781c2-1 4-1.597657 6.199219-1.597657zm0 0"/><path d="m254.546875 281.601562c-.601563 0-1.203125-.203124-1.800781-.402343l-165.800782-62.800781c-2.601562-1-3.800781-3.796876-3-6.398438.398438-1.199219 1.398438-2.398438 2.800782-2.800781l105.597656-43.398438c1.800781-.800781 4-.402343 5.402344 1l9.597656 9.398438c3 3 4.402344 7.199219 3.800781 11.402343l-8 46.199219c-.199219 1.597657.800781 3 2.402344 3.398438.597656.199219 1.199219 0 1.796875-.199219l41.601562-21.800781c1.601563-.800781 3.199219-1.398438 5-1.398438 2.800782-.199219 5.199219 1.800781 5.398438 4.597657v.402343 58c.203125 2.597657-2.199219 4.800781-4.796875 4.800781zm-152.203125-68 147 55.796876v-43.199219l-37.199219 19.601562c-6.398437 3.398438-14.199219.800781-17.398437-5.402343-1.402344-2.597657-1.800782-5.398438-1.199219-8.199219l8-46.199219c.199219-1-.203125-2-.800781-2.601562l-7.199219-7zm0 0"/><path d="m337.546875 345.800781c-1.203125 0-2.203125-.402343-3-1l-83.203125-64.199219c-2.199219-1.601562-2.597656-4.800781-1-7 .601562-.800781 1.402344-1.203124 2.203125-1.601562l166.398437-62.800781c1.601563-.597657 3.398438-.398438 4.800782.800781l83.199218 64.199219c2.199219 1.601562 2.601563 4.800781 1 7-.601562.800781-1.398437 1.199219-2.199218 1.601562l-166.402344 62.800781c-.597656.199219-1.199219.199219-1.796875.199219zm-73-67.601562 73.796875 57 155.402344-58.597657-73.800782-57zm0 0"/><path d="m254.546875 512c-2.800781 0-5-2.199219-5-5v-230.398438c0-2.800781 2.199219-5 5-5 1.199219 0 2.199219.398438 3 1l81 62.398438 80.597656-30.398438c2.601563-1 5.402344.398438 6.402344 3 .199219.597657.398437 1.199219.398437 1.796876v134.800781c0 2-1.199218 4-3.199218 4.601562l-166.402344 62.800781c-.597656.199219-1.199219.398438-1.796875.398438zm5-225.199219v213l156.199219-59v-124l-76.402344 28.800781c-1.597656.597657-3.398438.398438-4.796875-.800781zm0 0"/><path d="m171.945312 345.800781c-.601562 0-1.199218-.199219-1.800781-.402343l-166.398437-62.796876c-2.601563-1-3.8007815-3.800781-3-6.402343.398437-.800781.800781-1.597657 1.597656-2.199219l83.203125-64.199219c1.398437-1 3.199219-1.402343 4.796875-.800781l166.402344 63c2.597656 1 3.800781 3.800781 3 6.398438-.402344.800781-.800782 1.601562-1.601563 2.203124l-83.199219 64.199219c-.800781.597657-2 1-3 1zm-156.199218-69.402343 155.398437 58.601562 73.800781-57-155.398437-58.601562zm0 0"/><path d="m254.945312 512c-.601562 0-1.199218-.199219-1.800781-.398438l-166.398437-62.800781c-2-.800781-3.199219-2.601562-3.199219-4.601562v-134.800781c0-2.796876 2.199219-5 5-5 .597656 0 1.199219.203124 1.796875.402343l80.601562 30.398438 81-62.398438c2.199219-1.601562 5.398438-1.199219 7 1 .601563.800781 1 2 1 3v230.398438c0 2.601562-2.199218 4.800781-5 4.800781zm-161.199218-71.199219 156.398437 59v-213l-75.199219 58c-1.398437 1-3.199218 1.398438-4.800781.800781l-76.398437-28.800781zm0 0"/></g></svg>