<svg height="496pt" viewBox="-15 0 495 496" width="496pt" xmlns="http://www.w3.org/2000/svg"><path d="m200.5 0v72l-32-16-32 16v-72zm0 0" fill="#ed5565"/><path d="m384.5 144h80v352h-256v-352h80l6 24h-62v304h208v-304h-62zm0 0" fill="#656d78"/><path d="m384.5 144-8 32h-80l-8-32zm0 0" fill="#ccd1d9"/><path d="m296.5 176h80l2-8h62v304h-208v-304h62zm0 0" fill="#e6e9ed"/><path d="m336.5 16v128h-128v192h-192c-8.800781 0-16-7.199219-16-16v-304c0-8.800781 7.199219-16 16-16h120v72l32-16 32 16v-72h120c8.800781 0 16 7.199219 16 16zm0 0" fill="#ffce54"/><g fill="#f6bb42"><path d="m320.5 0h-24.023438c8.800782 0 16 7.199219 16 16v128h24.023438v-128c0-8.800781-7.199219-16-16-16zm0 0"/><path d="m120.5 264h-80c-4.425781 0-8 3.574219-8 8s3.574219 8 8 8h80c4.425781 0 8-3.574219 8-8s-3.574219-8-8-8zm0 0"/><path d="m80.5 288h-40c-4.425781 0-8 3.574219-8 8s3.574219 8 8 8h40c4.425781 0 8-3.574219 8-8s-3.574219-8-8-8zm0 0"/></g><path d="m298.84375 234.34375-18.34375 18.34375-2.34375-2.34375c-3.128906-3.128906-8.183594-3.128906-11.3125 0s-3.128906 8.183594 0 11.3125l8 8c1.558594 1.558594 3.609375 2.34375 5.65625 2.34375s4.097656-.785156 5.65625-2.34375l24-24c3.128906-3.128906 3.128906-8.183594 0-11.3125s-8.183594-3.128906-11.3125 0zm0 0" fill="#8cc152"/><path d="m336.5 248h64c4.425781 0 8-3.574219 8-8s-3.574219-8-8-8h-64c-4.425781 0-8 3.574219-8 8s3.574219 8 8 8zm0 0" fill="#ccd1d9"/><path d="m337.253906 256c-4.425781 0-8 3.574219-8 8s3.574219 8 8 8h23.246094c4.425781 0 8-3.574219 8-8s-3.574219-8-8-8zm0 0" fill="#ccd1d9"/><path d="m298.84375 306.34375-18.34375 18.34375-2.34375-2.34375c-3.128906-3.128906-8.183594-3.128906-11.3125 0s-3.128906 8.183594 0 11.3125l8 8c1.558594 1.558594 3.609375 2.34375 5.65625 2.34375s4.097656-.785156 5.65625-2.34375l24-24c3.128906-3.128906 3.128906-8.183594 0-11.3125s-8.183594-3.128906-11.3125 0zm0 0" fill="#8cc152"/><path d="m400.5 304h-64c-4.425781 0-8 3.574219-8 8s3.574219 8 8 8h64c4.425781 0 8-3.574219 8-8s-3.574219-8-8-8zm0 0" fill="#ccd1d9"/><path d="m337.253906 344h23.246094c4.425781 0 8-3.574219 8-8s-3.574219-8-8-8h-23.246094c-4.425781 0-8 3.574219-8 8s3.574219 8 8 8zm0 0" fill="#ccd1d9"/><path d="m298.84375 378.34375-18.34375 18.34375-2.34375-2.34375c-3.128906-3.128906-8.183594-3.128906-11.3125 0s-3.128906 8.183594 0 11.3125l8 8c1.558594 1.558594 3.609375 2.34375 5.65625 2.34375s4.097656-.785156 5.65625-2.34375l24-24c3.128906-3.128906 3.128906-8.183594 0-11.3125s-8.183594-3.128906-11.3125 0zm0 0" fill="#8cc152"/><path d="m400.5 376h-64c-4.425781 0-8 3.574219-8 8s3.574219 8 8 8h64c4.425781 0 8-3.574219 8-8s-3.574219-8-8-8zm0 0" fill="#ccd1d9"/><path d="m360.5 400h-23.246094c-4.425781 0-8 3.574219-8 8s3.574219 8 8 8h23.246094c4.425781 0 8-3.574219 8-8s-3.574219-8-8-8zm0 0" fill="#ccd1d9"/></svg>