<svg id="Layer_1" enable-background="new 0 0 256 256" height="512" viewBox="0 0 256 256" width="512" xmlns="http://www.w3.org/2000/svg"><g><g><path d="m243.15 191.318h-230.3c-4.888 0-8.85-3.962-8.85-8.85v-141.796c0-4.888 3.962-8.85 8.85-8.85h230.3c4.888 0 8.85 3.962 8.85 8.85v141.796c0 4.888-3.962 8.85-8.85 8.85z" fill="#f4efed"/></g><g><path d="m243.15 31.822h-10c4.888 0 8.85 3.962 8.85 8.85v141.796c0 4.888-3.962 8.85-8.85 8.85h10c4.888 0 8.85-3.962 8.85-8.85v-141.796c0-4.888-3.962-8.85-8.85-8.85z" fill="#d6d1cf"/></g><g><path d="m12.85 191.318h10c-4.888 0-8.85-3.962-8.85-8.85v-141.796c0-4.888 3.962-8.85 8.85-8.85h-10c-4.888 0-8.85 3.962-8.85 8.85v141.796c0 4.888 3.962 8.85 8.85 8.85z" fill="#fff"/></g><g><path d="m208.901 224.178h-161.802v-11.854c0-4.888 3.962-8.85 8.85-8.85h144.102c4.888 0 8.85 3.962 8.85 8.85z" fill="#526faa"/></g><g><path d="m200.051 203.474h-10c4.888 0 8.85 3.962 8.85 8.85v11.855h10v-11.855c0-4.888-3.962-8.85-8.85-8.85z" fill="#34518c"/></g><g><path d="m55.949 203.474h10c-4.888 0-8.85 3.962-8.85 8.85v11.855h-10v-11.855c0-4.888 3.962-8.85 8.85-8.85z" fill="#708dc8"/></g><g><path d="m80.503 191.318h94.993v12.156h-94.993z" fill="#34518c"/></g><g><path d="m12 69.026c-1.104 0-2-.896-2-2v-12c0-1.104.896-2 2-2s2 .896 2 2v12c0 1.104-.896 2-2 2z" fill="#690589"/></g><g><path d="m208.901 226.178h-161.802c-1.104 0-2-.896-2-2v-11.854c0-5.983 4.867-10.85 10.85-10.85h144.102c5.983 0 10.85 4.867 10.85 10.85v11.854c0 1.105-.896 2-2 2zm-159.802-4h157.802v-9.854c0-3.777-3.073-6.85-6.85-6.85h-144.102c-3.777 0-6.85 3.073-6.85 6.85z" fill="#690589"/></g><g><path d="m175.497 205.474h-94.994c-1.104 0-2-.896-2-2v-12.155c0-1.104.896-2 2-2h94.993c1.104 0 2 .896 2 2v12.155c.001 1.104-.895 2-1.999 2zm-92.994-4h90.993v-8.155h-90.993z" fill="#690589"/></g><g><path d="m243.15 193.318h-230.3c-5.983 0-10.85-4.867-10.85-10.85v-141.796c0-5.983 4.867-10.85 10.85-10.85h230.3c5.983 0 10.85 4.867 10.85 10.85v141.796c0 5.983-4.867 10.85-10.85 10.85zm-230.3-159.496c-3.777 0-6.85 3.073-6.85 6.85v141.796c0 3.777 3.073 6.85 6.85 6.85h230.3c3.777 0 6.85-3.073 6.85-6.85v-141.796c0-3.777-3.073-6.85-6.85-6.85z" fill="#690589"/></g><g><path d="m168.799 118.355v-19.574h-10.832c-1.258-6.152-3.687-11.876-7.032-16.941l7.67-7.669-13.841-13.841-7.669 7.67c-5.066-3.344-10.789-5.773-16.941-7.032v-10.834h-19.574v10.832c-6.153 1.258-11.876 3.687-16.941 7.032l-7.669-7.67-13.844 13.842 7.669 7.669c-3.344 5.066-5.773 10.789-7.032 16.941h-10.831v19.574h10.832c1.258 6.152 3.687 11.876 7.032 16.941l-7.669 7.67 13.841 13.841 7.669-7.669c5.066 3.344 10.789 5.773 16.941 7.032v10.832h19.574v-10.832c6.152-1.258 11.876-3.688 16.942-7.032l7.669 7.669 13.841-13.841-7.67-7.67c3.344-5.066 5.773-10.789 7.032-16.941h10.833zm-58.434 19.506c-16.178 0-29.294-13.115-29.294-29.294 0-16.178 13.116-29.294 29.294-29.294 16.179 0 29.294 13.115 29.294 29.294s-13.115 29.294-29.294 29.294z" fill="#fcc24c"/></g><g><path d="m168.799 118.355v-19.574h-10.832c-1.258-6.152-3.687-11.876-7.032-16.941l7.67-7.669-13.841-13.841-7.669 7.67c-5.066-3.344-10.789-5.773-16.941-7.032v-10.834h-19.574v10.832c-6.153 1.258-11.876 3.687-16.941 7.032l-7.669-7.67-13.844 13.842 7.669 7.669c-3.344 5.066-5.773 10.789-7.032 16.941h-10.831v19.574h10.832c1.258 6.152 3.687 11.876 7.032 16.941l-7.669 7.67 13.841 13.841 7.669-7.669c5.066 3.344 10.789 5.773 16.941 7.032v10.832h19.574v-10.832c6.152-1.258 11.876-3.688 16.942-7.032l7.669 7.669 13.841-13.841-7.67-7.67c3.344-5.066 5.773-10.789 7.032-16.941h10.833zm-58.434 19.506c-16.178 0-29.294-13.115-29.294-29.294 0-16.178 13.116-29.294 29.294-29.294 16.179 0 29.294 13.115 29.294 29.294s-13.115 29.294-29.294 29.294z" fill="#fcc24c"/></g><g><path d="m120.153 169.001h-19.574c-1.104 0-2-.896-2-2v-9.227c-5.18-1.236-10.099-3.278-14.663-6.087l-6.534 6.534c-.375.375-.884.586-1.414.586-.53 0-1.039-.211-1.414-.586l-13.842-13.841c-.781-.781-.781-2.047 0-2.828l6.534-6.534c-2.81-4.565-4.852-9.484-6.088-14.663h-9.227c-1.104 0-2-.896-2-2v-19.575c0-1.104.896-2 2-2h9.227c1.236-5.179 3.278-10.098 6.087-14.662l-6.534-6.534c-.781-.781-.781-2.047 0-2.828l13.841-13.841c.75-.75 2.078-.75 2.828 0l6.534 6.534c4.564-2.81 9.483-4.852 14.663-6.087v-9.227c0-1.104.896-2 2-2h19.574c1.104 0 2 .896 2 2v9.227c5.18 1.236 10.098 3.278 14.663 6.087l6.534-6.534c.75-.75 2.078-.751 2.828 0l13.842 13.841c.375.375.586.884.586 1.414s-.211 1.039-.586 1.414l-6.534 6.534c2.81 4.564 4.852 9.482 6.087 14.662h9.227c1.104 0 2 .896 2 2v19.575c0 1.104-.896 2-2 2h-9.227c-1.236 5.18-3.278 10.098-6.087 14.663l6.534 6.534c.375.375.586.884.586 1.414s-.211 1.039-.586 1.414l-13.842 13.841c-.375.375-.884.586-1.414.586-.53 0-1.039-.211-1.414-.586l-6.534-6.534c-4.564 2.81-9.483 4.852-14.663 6.087v9.227c.002 1.104-.894 2-1.998 2zm-17.574-4h15.574v-8.832c0-.95.668-1.769 1.599-1.959 5.797-1.186 11.261-3.454 16.24-6.741.793-.523 1.844-.417 2.516.255l6.255 6.255 11.013-11.013-6.255-6.255c-.672-.671-.778-1.723-.255-2.516 3.288-4.979 5.556-10.443 6.741-16.24.19-.931 1.009-1.599 1.959-1.599h8.832v-15.576h-8.832c-.95 0-1.769-.668-1.959-1.599-1.186-5.797-3.454-11.261-6.741-16.24-.523-.793-.417-1.845.255-2.516l6.255-6.255-11.013-11.013-6.255 6.255c-.672.672-1.724.779-2.516.255-4.979-3.287-10.443-5.555-16.24-6.741-.931-.19-1.599-1.009-1.599-1.959v-8.832h-15.574v8.832c0 .95-.668 1.769-1.599 1.959-5.797 1.186-11.261 3.454-16.241 6.741-.792.525-1.844.418-2.516-.255l-6.255-6.255-11.013 11.013 6.255 6.255c.672.671.778 1.723.255 2.516-3.288 4.979-5.556 10.443-6.741 16.24-.19.931-1.009 1.599-1.959 1.599h-8.832v15.575h8.832c.95 0 1.769.668 1.959 1.599 1.186 5.796 3.454 11.26 6.741 16.24.523.793.417 1.845-.255 2.516l-6.255 6.255 11.012 11.013 6.255-6.255c.671-.673 1.723-.779 2.516-.255 4.979 3.287 10.444 5.555 16.241 6.741.931.19 1.599 1.009 1.599 1.959v8.833zm7.786-25.14c-17.255 0-31.293-14.038-31.293-31.293s14.038-31.294 31.293-31.294 31.294 14.039 31.294 31.294-14.038 31.293-31.294 31.293zm0-58.587c-15.05 0-27.293 12.244-27.293 27.294s12.244 27.293 27.293 27.293 27.294-12.244 27.294-27.293-12.244-27.294-27.294-27.294z" fill="#690589"/></g><g><path d="m120.153 169.001h-19.574c-1.104 0-2-.896-2-2v-9.227c-5.18-1.236-10.099-3.278-14.663-6.087l-6.534 6.534c-.375.375-.884.586-1.414.586-.53 0-1.039-.211-1.414-.586l-13.842-13.841c-.781-.781-.781-2.047 0-2.828l6.534-6.534c-2.81-4.565-4.852-9.484-6.088-14.663h-9.227c-1.104 0-2-.896-2-2v-19.575c0-1.104.896-2 2-2h9.227c1.236-5.179 3.278-10.098 6.087-14.662l-6.534-6.534c-.781-.781-.781-2.047 0-2.828l13.841-13.841c.75-.75 2.078-.75 2.828 0l6.534 6.534c4.564-2.81 9.483-4.852 14.663-6.087v-9.227c0-1.104.896-2 2-2h19.574c1.104 0 2 .896 2 2v9.227c5.18 1.236 10.098 3.278 14.663 6.087l6.534-6.534c.75-.75 2.078-.751 2.828 0l13.842 13.841c.375.375.586.884.586 1.414s-.211 1.039-.586 1.414l-6.534 6.534c2.81 4.564 4.852 9.482 6.087 14.662h9.227c1.104 0 2 .896 2 2v19.575c0 1.104-.896 2-2 2h-9.227c-1.236 5.18-3.278 10.098-6.087 14.663l6.534 6.534c.375.375.586.884.586 1.414s-.211 1.039-.586 1.414l-13.842 13.841c-.375.375-.884.586-1.414.586-.53 0-1.039-.211-1.414-.586l-6.534-6.534c-4.564 2.81-9.483 4.852-14.663 6.087v9.227c.002 1.104-.894 2-1.998 2zm-17.574-4h15.574v-8.832c0-.95.668-1.769 1.599-1.959 5.797-1.186 11.261-3.454 16.24-6.741.793-.523 1.844-.417 2.516.255l6.255 6.255 11.013-11.013-6.255-6.255c-.672-.671-.778-1.723-.255-2.516 3.288-4.979 5.556-10.443 6.741-16.24.19-.931 1.009-1.599 1.959-1.599h8.832v-15.576h-8.832c-.95 0-1.769-.668-1.959-1.599-1.186-5.797-3.454-11.261-6.741-16.24-.523-.793-.417-1.845.255-2.516l6.255-6.255-11.013-11.013-6.255 6.255c-.672.672-1.724.779-2.516.255-4.979-3.287-10.443-5.555-16.24-6.741-.931-.19-1.599-1.009-1.599-1.959v-8.832h-15.574v8.832c0 .95-.668 1.769-1.599 1.959-5.797 1.186-11.261 3.454-16.241 6.741-.792.525-1.844.418-2.516-.255l-6.255-6.255-11.013 11.013 6.255 6.255c.672.671.778 1.723.255 2.516-3.288 4.979-5.556 10.443-6.741 16.24-.19.931-1.009 1.599-1.959 1.599h-8.832v15.575h8.832c.95 0 1.769.668 1.959 1.599 1.186 5.796 3.454 11.26 6.741 16.24.523.793.417 1.845-.255 2.516l-6.255 6.255 11.012 11.013 6.255-6.255c.671-.673 1.723-.779 2.516-.255 4.979 3.287 10.444 5.555 16.241 6.741.931.19 1.599 1.009 1.599 1.959v8.833zm7.786-25.14c-17.255 0-31.293-14.038-31.293-31.293s14.038-31.294 31.293-31.294 31.294 14.039 31.294 31.294-14.038 31.293-31.294 31.293zm0-58.587c-15.05 0-27.293 12.244-27.293 27.294s12.244 27.293 27.293 27.293 27.294-12.244 27.294-27.293-12.244-27.294-27.294-27.294z" fill="#690589"/></g><g><path d="m204.068 136.489v-14.694h-8.131c-.945-4.618-2.768-8.915-5.278-12.717l5.757-5.757-10.39-10.39-5.757 5.757c-3.803-2.51-8.099-4.334-12.717-5.278v-8.131h-14.694v8.131c-4.618.945-8.914 2.768-12.717 5.278l-5.757-5.757-10.39 10.39 5.757 5.757c-2.51 3.803-4.334 8.099-5.278 12.717h-8.131v14.694h8.131c.945 4.618 2.768 8.915 5.278 12.717l-5.757 5.757 10.39 10.39 5.757-5.757c3.803 2.51 8.099 4.334 12.717 5.278v8.131h14.694v-8.131c4.618-.945 8.915-2.768 12.717-5.278l5.757 5.757 10.39-10.39-5.757-5.757c2.51-3.803 4.334-8.099 5.278-12.717zm-43.864 14.643c-12.144 0-21.989-9.845-21.989-21.99 0-12.144 9.845-21.989 21.989-21.989 12.145 0 21.99 9.845 21.99 21.989 0 12.145-9.845 21.99-21.99 21.99z" fill="#8852a8"/></g><g><path d="m167.551 175.006h-14.693c-1.104 0-2-.896-2-2v-6.535c-3.671-.916-7.168-2.368-10.433-4.332l-4.628 4.628c-.78.781-2.048.781-2.828 0l-10.39-10.39c-.781-.781-.781-2.047 0-2.828l4.628-4.628c-1.963-3.263-3.415-6.76-4.332-10.433h-6.534c-1.104 0-2-.896-2-2v-14.693c0-1.104.896-2 2-2h6.534c.917-3.672 2.368-7.169 4.332-10.432l-4.628-4.628c-.375-.375-.586-.884-.586-1.414s.21-1.039.586-1.414l10.39-10.391c.75-.75 2.078-.75 2.828 0l4.628 4.628c3.263-1.963 6.76-3.415 10.433-4.332v-6.535c0-1.104.896-2 2-2h14.693c1.104 0 2 .896 2 2v6.535c3.672.917 7.169 2.368 10.433 4.332l4.628-4.628c.75-.75 2.078-.75 2.828 0l10.39 10.391c.375.375.586.884.586 1.414s-.211 1.039-.586 1.414l-4.628 4.628c1.963 3.263 3.415 6.76 4.332 10.432h6.535c1.104 0 2 .896 2 2v14.693c0 1.104-.896 2-2 2h-6.535c-.917 3.673-2.368 7.17-4.332 10.433l4.628 4.628c.781.781.781 2.047 0 2.828l-10.39 10.39c-.78.781-2.048.781-2.828 0l-4.628-4.628c-3.264 1.964-6.761 3.416-10.433 4.332v6.535c0 1.104-.896 2-2 2zm-12.694-4h10.693v-6.131c0-.95.668-1.769 1.6-1.959 4.287-.876 8.33-2.555 12.016-4.988.794-.523 1.846-.417 2.516.255l4.343 4.343 7.562-7.562-4.343-4.343c-.672-.671-.778-1.723-.255-2.516 2.432-3.684 4.11-7.727 4.988-12.016.19-.931 1.009-1.599 1.959-1.599h6.131v-10.693h-6.131c-.95 0-1.769-.668-1.959-1.599-.877-4.289-2.556-8.332-4.988-12.016-.523-.793-.417-1.845.255-2.516l4.343-4.343-7.562-7.562-4.343 4.343c-.671.672-1.723.779-2.516.255-3.685-2.432-7.728-4.11-12.016-4.988-.931-.19-1.599-1.009-1.599-1.959v-6.131h-10.693v6.131c0 .95-.668 1.769-1.599 1.959-4.289.877-8.332 2.556-12.016 4.988-.792.524-1.844.418-2.516-.255l-4.343-4.343-7.562 7.562 4.343 4.343c.672.671.778 1.723.255 2.516-2.432 3.685-4.11 7.728-4.988 12.016-.19.931-1.009 1.599-1.959 1.599h-6.131v10.693h6.131c.95 0 1.769.668 1.959 1.599.877 4.289 2.556 8.332 4.988 12.016.523.793.417 1.845-.255 2.516l-4.343 4.343 7.562 7.562 4.343-4.343c.671-.672 1.723-.779 2.516-.255 3.686 2.433 7.729 4.111 12.016 4.988.931.19 1.6 1.009 1.6 1.959v6.131zm5.347-17.874c-13.228 0-23.989-10.762-23.989-23.99s10.762-23.989 23.989-23.989c13.228 0 23.99 10.762 23.99 23.989 0 13.228-10.762 23.99-23.99 23.99zm0-43.979c-11.022 0-19.989 8.967-19.989 19.989s8.967 19.99 19.989 19.99 19.99-8.967 19.99-19.99c0-11.022-8.967-19.989-19.99-19.989z" fill="#690589"/></g><g><path d="m167.551 175.006h-14.693c-1.104 0-2-.896-2-2v-6.535c-3.671-.916-7.168-2.368-10.433-4.332l-4.628 4.628c-.78.781-2.048.781-2.828 0l-10.39-10.39c-.781-.781-.781-2.047 0-2.828l4.628-4.628c-1.963-3.263-3.415-6.76-4.332-10.433h-6.534c-1.104 0-2-.896-2-2v-14.693c0-1.104.896-2 2-2h6.534c.917-3.672 2.368-7.169 4.332-10.432l-4.628-4.628c-.375-.375-.586-.884-.586-1.414s.21-1.039.586-1.414l10.39-10.391c.75-.75 2.078-.75 2.828 0l4.628 4.628c3.263-1.963 6.76-3.415 10.433-4.332v-6.535c0-1.104.896-2 2-2h14.693c1.104 0 2 .896 2 2v6.535c3.672.917 7.169 2.368 10.433 4.332l4.628-4.628c.75-.75 2.078-.75 2.828 0l10.39 10.391c.375.375.586.884.586 1.414s-.211 1.039-.586 1.414l-4.628 4.628c1.963 3.263 3.415 6.76 4.332 10.432h6.535c1.104 0 2 .896 2 2v14.693c0 1.104-.896 2-2 2h-6.535c-.917 3.673-2.368 7.17-4.332 10.433l4.628 4.628c.781.781.781 2.047 0 2.828l-10.39 10.39c-.78.781-2.048.781-2.828 0l-4.628-4.628c-3.264 1.964-6.761 3.416-10.433 4.332v6.535c0 1.104-.896 2-2 2zm-12.694-4h10.693v-6.131c0-.95.668-1.769 1.6-1.959 4.287-.876 8.33-2.555 12.016-4.988.794-.523 1.846-.417 2.516.255l4.343 4.343 7.562-7.562-4.343-4.343c-.672-.671-.778-1.723-.255-2.516 2.432-3.684 4.11-7.727 4.988-12.016.19-.931 1.009-1.599 1.959-1.599h6.131v-10.693h-6.131c-.95 0-1.769-.668-1.959-1.599-.877-4.289-2.556-8.332-4.988-12.016-.523-.793-.417-1.845.255-2.516l4.343-4.343-7.562-7.562-4.343 4.343c-.671.672-1.723.779-2.516.255-3.685-2.432-7.728-4.11-12.016-4.988-.931-.19-1.599-1.009-1.599-1.959v-6.131h-10.693v6.131c0 .95-.668 1.769-1.599 1.959-4.289.877-8.332 2.556-12.016 4.988-.792.524-1.844.418-2.516-.255l-4.343-4.343-7.562 7.562 4.343 4.343c.672.671.778 1.723.255 2.516-2.432 3.685-4.11 7.728-4.988 12.016-.19.931-1.009 1.599-1.959 1.599h-6.131v10.693h6.131c.95 0 1.769.668 1.959 1.599.877 4.289 2.556 8.332 4.988 12.016.523.793.417 1.845-.255 2.516l-4.343 4.343 7.562 7.562 4.343-4.343c.671-.672 1.723-.779 2.516-.255 3.686 2.433 7.729 4.111 12.016 4.988.931.19 1.6 1.009 1.6 1.959v6.131zm5.347-17.874c-13.228 0-23.989-10.762-23.989-23.99s10.762-23.989 23.989-23.989c13.228 0 23.99 10.762 23.99 23.989 0 13.228-10.762 23.99-23.99 23.99zm0-43.979c-11.022 0-19.989 8.967-19.989 19.989s8.967 19.99 19.989 19.99 19.99-8.967 19.99-19.99c0-11.022-8.967-19.989-19.99-19.989z" fill="#690589"/></g><g><path d="m222.769 60.983-7.934-9.424-7.934-9.425-7.934 9.425-7.935 9.424h9.475v25.537h12.787v-25.537z" fill="#fcc24c"/></g><g><path d="m213.294 88.52h-12.787c-1.104 0-2-.896-2-2v-23.537h-7.475c-.778 0-1.485-.451-1.813-1.156s-.217-1.537.284-2.132l15.868-18.849c.761-.902 2.3-.902 3.061 0l15.868 18.849c.501.595.612 1.427.284 2.132s-1.036 1.156-1.813 1.156h-7.475v23.537c-.002 1.105-.897 2-2.002 2zm-10.787-4h8.787v-23.537c0-1.104.896-2 2-2h5.177l-11.57-13.744-11.57 13.744h5.177c1.104 0 2 .896 2 2v23.537z" fill="#690589"/></g></g></svg>